<svg width="55" height="55" viewBox="0 0 55 55" fill="none" xmlns="http://www.w3.org/2000/svg">
<path d="M32.0833 28.985L37.5146 23.5538C38.1883 22.8823 38.5229 22.5455 38.7016 22.1834C39.0454 21.4959 39.0454 20.6869 38.7016 19.9971C38.5229 19.635 38.1883 19.3005 37.5169 18.629C36.8454 17.9575 36.5085 17.623 36.1487 17.4442C35.8092 17.2751 35.435 17.1871 35.0556 17.1871C34.6762 17.1871 34.3021 17.2751 33.9625 17.4442C33.6004 17.623 33.2635 17.9575 32.5921 18.629L27.1608 24.0625M32.0833 28.985L13.2412 47.8294C12.5698 48.5009 12.2329 48.8355 11.8708 49.0142C11.1833 49.358 10.3744 49.358 9.68456 49.0142C9.32248 48.8355 8.9879 48.5009 8.31644 47.8294C7.64498 47.158 7.3104 46.8211 7.13165 46.4613C6.96253 46.1217 6.87451 45.7475 6.87451 45.3682C6.87451 44.9888 6.96253 44.6146 7.13165 44.275C7.3104 43.913 7.64498 43.5761 8.31644 42.9046L27.1608 24.0625M32.0833 28.985L27.1608 24.0625" stroke="black" stroke-width="1.5" stroke-linecap="round" stroke-linejoin="round"/>
<path d="M44.6875 5.72919L44.4354 6.4144C44.1008 7.31044 43.9358 7.7596 43.6104 8.08731C43.2804 8.41502 42.8313 8.58231 41.9352 8.91231L41.25 9.16669L41.9352 9.41877C42.8313 9.75106 43.2804 9.91835 43.6081 10.2438C43.9358 10.5738 44.1008 11.0229 44.4331 11.919L44.6875 12.6042L44.9396 11.919C45.2742 11.0229 45.4392 10.5738 45.7646 10.2461C46.0946 9.91835 46.5438 9.75106 47.4398 9.42106L48.125 9.16669L47.4398 8.9146C46.5438 8.58231 46.0946 8.41502 45.7669 8.0896C45.4392 7.7596 45.2742 7.31044 44.9419 6.4144L44.6875 5.72919ZM44.6875 28.6459L44.4354 29.3311C44.1008 30.2271 43.9358 30.6763 43.6104 31.004C43.2804 31.3317 42.8313 31.499 41.9352 31.829L41.25 32.0834L41.9352 32.3354C42.8313 32.67 43.2804 32.835 43.6081 33.1604C43.9358 33.4904 44.1008 33.9396 44.4331 34.8356L44.6875 35.5209L44.9396 34.8356C45.2742 33.9396 45.4392 33.4904 45.7646 33.1627C46.0946 32.835 46.5438 32.6677 47.4398 32.3377L48.125 32.0834L47.4398 31.8313C46.5438 31.4967 46.0946 31.3317 45.7669 31.0063C45.4392 30.6763 45.2742 30.2271 44.9419 29.3311L44.6875 28.6459ZM24.0625 5.72919L23.8104 6.4144C23.4758 7.31044 23.3108 7.7596 22.9854 8.08731C22.6554 8.41502 22.2062 8.58231 21.3102 8.91231L20.625 9.16669L21.3102 9.41877C22.2062 9.75106 22.6554 9.91835 22.9831 10.2438C23.3108 10.5738 23.4781 11.0229 23.8081 11.919L24.0625 12.6042L24.3146 11.919C24.6492 11.0229 24.8142 10.5738 25.1396 10.2461C25.4696 9.91835 25.9188 9.75106 26.8148 9.42106L27.5 9.16669L26.8148 8.9146C25.9188 8.58231 25.4696 8.41502 25.1419 8.0896C24.8142 7.7596 24.6469 7.31044 24.3169 6.4144L24.0625 5.72919Z" stroke="black" stroke-width="1.5" stroke-linejoin="round"/>
</svg>
