<svg width="48" height="48" viewBox="0 0 48 48" fill="none" xmlns="http://www.w3.org/2000/svg">
<path d="M24 14.666C24 11 21 8 17.334 8H4V32H17.416C24 32 24 38.668 24 38.668M24 14.666C24 10.998 27 8 30.666 8H44V32H30.666C24 32 24 38.668 24 38.668M24 14.666V38.668M27.75 40.916C28.1673 40.0517 28.8174 39.321 29.6272 38.8059C30.4369 38.2907 31.3743 38.0117 32.334 38H42M20.25 40.916C19.8403 40.0459 19.192 39.3099 18.3806 38.7937C17.5691 38.2775 16.6277 38.0023 15.666 38H6" stroke="black" stroke-width="1.5" stroke-miterlimit="10" stroke-linecap="round" stroke-linejoin="round"/>
</svg>
