<svg width="42" height="42" viewBox="0 0 42 42" fill="none" xmlns="http://www.w3.org/2000/svg">
<path d="M32.375 19.25V32.375M32.375 32.375V38.5H9.625V32.375M32.375 32.375H38.5V19.25C38.5 16.625 36.75 13.5625 34.125 11.375C31.5 9.1875 28 8.75 28 8.75L21 15.75M9.625 32.375H3.5V19.25C3.5 16.625 5.25 13.5625 7.875 11.375C10.5 9.1875 14 8.75 14 8.75L21 15.75M9.625 32.375V19.25M21 15.75V23.625" stroke="black" stroke-width="2" stroke-linecap="round" stroke-linejoin="round"/>
<path d="M7.875 11.375C10.5 9.1875 14 8.75 14 8.75L21 15.75L28 8.75C28 8.75 31.5 9.1875 34.125 11.375L35.875 7.4375L34.125 3.5H7.875L6.125 7.4375L7.875 11.375Z" stroke="black" stroke-width="2" stroke-linecap="round" stroke-linejoin="round"/>
</svg>
