<svg width="49" height="49" viewBox="0 0 49 49" fill="none" xmlns="http://www.w3.org/2000/svg">
<path d="M11.4415 4.90001C9.91271 4.90001 8.56276 5.97311 8.28101 7.51661C7.91841 9.52071 7.35001 13.0879 7.35001 15.925C7.35001 18.941 8.90821 21.5919 11.2578 23.1182C11.9217 23.5519 12.25 24.1105 12.25 24.5882V25.5927C12.25 25.6368 12.2476 25.6809 12.2427 25.725C12.1765 26.362 11.8727 29.2261 11.5861 32.171C11.3043 35.0742 11.025 38.1735 11.025 39.2C11.025 40.4996 11.5413 41.7459 12.4602 42.6648C13.3791 43.5838 14.6254 44.1 15.925 44.1C17.2246 44.1 18.4709 43.5838 19.3898 42.6648C20.3088 41.7459 20.825 40.4996 20.825 39.2C20.825 38.171 20.5457 35.0742 20.264 32.171C20.0545 30.0222 19.8356 27.8743 19.6074 25.7275L19.6 25.5927V24.5882C19.6 24.108 19.9283 23.5494 20.5923 23.1182C21.7916 22.34 22.7774 21.2743 23.4599 20.018C24.1424 18.7617 24.4999 17.3547 24.5 15.925C24.5 13.0879 23.9316 9.52071 23.569 7.51661C23.4328 6.77901 23.0416 6.11279 22.4638 5.63446C21.8861 5.15613 21.1586 4.89616 20.4085 4.90001C19.5755 4.90001 18.816 5.21116 18.2427 5.72321C17.5876 5.19075 16.7692 4.90006 15.925 4.90001C15.0455 4.90001 14.2394 5.20871 13.6073 5.72321C13.0124 5.1913 12.2395 4.89811 11.4415 4.90001ZM14.7 8.57501C14.7 8.25012 14.8291 7.93853 15.0588 7.7088C15.2885 7.47907 15.6001 7.35001 15.925 7.35001C16.2499 7.35001 16.5615 7.47907 16.7912 7.7088C17.0209 7.93853 17.15 8.25012 17.15 8.57501V15.925C17.15 16.2499 17.2791 16.5615 17.5088 16.7912C17.7385 17.0209 18.0501 17.15 18.375 17.15C18.6999 17.15 19.0115 17.0209 19.2412 16.7912C19.4709 16.5615 19.6 16.2499 19.6 15.925V8.15851C19.6 8.05233 19.6209 7.9472 19.6615 7.84911C19.7022 7.75101 19.7617 7.66189 19.8368 7.58681C19.9119 7.51173 20.001 7.45218 20.0991 7.41155C20.1972 7.37092 20.3023 7.35001 20.4085 7.35001C20.7932 7.35001 21.0945 7.61461 21.1582 7.95516C21.5184 9.94701 22.05 13.3256 22.05 15.925C22.0501 16.9467 21.7946 17.9523 21.3068 18.85C20.819 19.7478 20.1143 20.5093 19.257 21.0651C18.1815 21.7634 17.15 22.9908 17.15 24.5882V25.5927C17.15 25.7234 17.1565 25.854 17.1696 25.9847C17.2382 26.6168 17.5396 29.4735 17.8262 32.4086C18.1153 35.3854 18.375 38.3254 18.375 39.2C18.375 39.8498 18.1169 40.473 17.6574 40.9324C17.198 41.3919 16.5748 41.65 15.925 41.65C15.2752 41.65 14.6521 41.3919 14.1926 40.9324C13.7331 40.473 13.475 39.8498 13.475 39.2C13.475 38.3254 13.7347 35.3854 14.0238 32.4086C14.3105 29.4735 14.6118 26.6168 14.6804 25.9847C14.6935 25.854 14.7 25.7234 14.7 25.5927V24.5882C14.7 22.9908 13.6686 21.7634 12.593 21.0651C11.7357 20.5093 11.031 19.7478 10.5432 18.85C10.0554 17.9523 9.79989 16.9467 9.80001 15.925C9.80001 13.328 10.3317 9.94701 10.6918 7.95516C10.7254 7.78163 10.8193 7.62561 10.957 7.51482C11.0947 7.40403 11.2673 7.34563 11.444 7.35001C11.658 7.35065 11.863 7.43612 12.0141 7.58767C12.1652 7.73923 12.25 7.9445 12.25 8.15851V15.925C12.25 16.2499 12.3791 16.5615 12.6088 16.7912C12.8385 17.0209 13.1501 17.15 13.475 17.15C13.7999 17.15 14.1115 17.0209 14.3412 16.7912C14.5709 16.5615 14.7 16.2499 14.7 15.925V8.57501ZM26.95 15.925C26.95 13.001 28.1116 10.1967 30.1792 8.12915C32.2467 6.06156 35.051 4.90001 37.975 4.90001C38.2999 4.90001 38.6115 5.02907 38.8412 5.2588C39.0709 5.48853 39.2 5.80012 39.2 6.12501V23.2211L39.249 23.7699C39.44 25.9712 39.6262 28.173 39.8076 30.3751C40.1114 34.0673 40.425 38.1196 40.425 39.2C40.425 40.4996 39.9088 41.7459 38.9898 42.6648C38.0709 43.5838 36.8246 44.1 35.525 44.1C34.2254 44.1 32.9791 43.5838 32.0602 42.6648C31.1413 41.7459 30.625 40.4996 30.625 39.2C30.625 38.122 30.9386 34.0673 31.2424 30.3751C31.3943 28.5107 31.5487 26.7075 31.6638 25.3722L31.7373 24.5H30.625C29.6503 24.5 28.7156 24.1128 28.0264 23.4236C27.3372 22.7344 26.95 21.7997 26.95 20.825V15.925ZM34.2951 23.3828L34.2437 23.9831L34.104 25.5829C33.9889 26.9157 33.8345 28.714 33.6826 30.576C33.3739 34.3417 33.075 38.2494 33.075 39.2C33.075 39.8498 33.3331 40.473 33.7926 40.9324C34.2521 41.3919 34.8752 41.65 35.525 41.65C36.1748 41.65 36.798 41.3919 37.2574 40.9324C37.7169 40.473 37.975 39.8498 37.975 39.2C37.975 38.2494 37.6761 34.3417 37.3674 30.576C37.1856 28.3779 36.9986 26.1803 36.8064 23.9831L36.7549 23.3853V23.3828L36.75 23.275V7.43576C34.7088 7.73038 32.8421 8.7508 31.4922 10.31C30.1423 11.8692 29.3995 13.8626 29.4 15.925V20.825C29.4 21.1499 29.5291 21.4615 29.7588 21.6912C29.9885 21.9209 30.3001 22.05 30.625 22.05H33.075C33.245 22.05 33.413 22.0854 33.5686 22.1539C33.7241 22.2224 33.8637 22.3225 33.9784 22.4478C34.0932 22.5732 34.1806 22.7211 34.2351 22.882C34.2896 23.043 34.3101 23.2135 34.2951 23.3828Z" fill="black"/>
</svg>
