<svg width="36" height="36" viewBox="0 0 36 36" fill="none" xmlns="http://www.w3.org/2000/svg">
<path d="M16.0855 16.0875L6.5022 6.50415" stroke="black" stroke-width="1.5"/>
<path d="M4.58556 9.37914L9.37722 4.58747L3.62722 1.71247L1.71056 3.62914L4.58556 9.37914ZM33.2876 12.2062C34.2078 11.2868 34.8409 10.1197 35.1097 8.84702C35.3786 7.57431 35.2716 6.25089 34.8018 5.03789L32.0763 7.76339H28.243V3.93006L30.9685 1.20456C29.7554 0.73371 28.4315 0.62584 27.1582 0.894088C25.8849 1.16234 24.7171 1.79512 23.7971 2.71535C22.8771 3.63558 22.2445 4.80353 21.9766 6.07689C21.7086 7.35026 21.8168 8.67408 22.2879 9.88706L9.88706 22.2898C8.67408 21.8187 7.35026 21.7105 6.07689 21.9785C4.80353 22.2465 3.63558 22.879 2.71535 23.799C1.79512 24.719 1.16234 25.8868 0.894088 27.1602C0.62584 28.4335 0.73371 29.7573 1.20456 30.9704L3.92814 28.2449H7.76147V32.0782L5.03597 34.8037C6.24875 35.2746 7.57227 35.3826 8.84536 35.1147C10.1184 34.8467 11.2862 34.2144 12.2063 33.2947C13.1264 32.375 13.7593 31.2075 14.0277 29.9346C14.2962 28.6616 14.1888 27.338 13.7185 26.1251L26.1231 13.7204C27.3356 14.1894 28.6583 14.2959 29.9302 14.0271C31.2022 13.7583 32.3686 13.1257 33.2876 12.2062Z" stroke="black" stroke-width="1.5" stroke-linejoin="round"/>
<path d="M17.6132 22.7958L28.3542 33.5368C28.5945 33.7776 28.88 33.9686 29.1942 34.099C29.5085 34.2293 29.8453 34.2964 30.1855 34.2964C30.5257 34.2964 30.8626 34.2293 31.1769 34.099C31.4911 33.9686 31.7766 33.7776 32.0169 33.5368L33.5349 32.0188C33.7757 31.7785 33.9667 31.493 34.0971 31.1788C34.2274 30.8645 34.2945 30.5276 34.2945 30.1874C34.2945 29.8472 34.2274 29.5103 34.0971 29.1961C33.9667 28.8818 33.7757 28.5964 33.5349 28.356L22.7939 17.6151" stroke="black" stroke-width="1.5" stroke-linejoin="round"/>
</svg>
